<svg xmlns="http://www.w3.org/2000/svg" xmlns:xlink="http://www.w3.org/1999/xlink" id="_x33_0" x="0px" y="0px" viewBox="0 0 512 512" style="enable-background:new 0 0 512 512;" xml:space="preserve"><style type="text/css">	.st0{fill:#F47123;}	.st1{fill:#06529C;}</style><path class="st0" d="M40,344h16v16H40V344z"></path><path class="st0" d="M72,344h16v16H72V344z"></path><path class="st0" d="M104,344h16v16h-16V344z"></path><path class="st0" d="M40,296h16v16H40V296z"></path><path class="st0" d="M72,296h16v16H72V296z"></path><path class="st0" d="M104,296h16v16h-16V296z"></path><path class="st0" d="M40,248h16v16H40V248z"></path><path class="st0" d="M72,248h16v16H72V248z"></path><path class="st0" d="M104,248h16v16h-16V248z"></path><path class="st1" d="M491.6,394.3c8.1-15.9,12.4-33.4,12.4-51.4c0-27-9.7-53.1-27.2-73.6L408,189v-26.6l1.3-2 C418.9,146,424,129.3,424,112v-3.3l-2.3-2.3C419.8,104.5,401.9,88,352,88h-8v8c0,2.7,0.1,5.4,0.2,8.1c-13.4,0.6-25.3,8.2-31.4,20.3 l-1.8,3.6l16.9,33.9V189l-16,18.7v-38.3l-32-6V88h-16v72.4l-16-3V120h-16v34.4l-16-3v-78l-48-9V8h-16v53.4l-16-3V24h-16v31.4l-48-9 v159l-16,3V168H40v43.4l-32,6V504h397.6c13.3,0,26.2-2.7,38.4-7.9c27.1-11.6,47.3-34.5,55.4-62.8l3.8-13.2c0.6-2,0.8-4,0.8-6.1 C504,405.3,498.9,397.9,491.6,394.3L491.6,394.3z M488,342.9c0,17.9-4.9,35.2-14.2,50.4c-5.5,1.6-10.6,4.7-14.4,9.2L445,419.9 c-10.7,12.8-26.3,20.1-43,20.1h-53c-2.8,0-5-2.2-5-5c0-2.5,1.8-4.5,4.2-4.9l21.4-3.6c13-2.2,22.5-13.3,22.5-26.5 c0-13.2-10.8-24-24-24h-24c-26.4,0-52.5,8.4-74,23.7l-3.9-0.5c-11.8-16.5-18.1-35.9-18.1-56.3c0-23.2,8.3-45.6,23.4-63.2l68.3-79.7 h56.6l68.3,79.7C479.7,297.3,488,319.7,488,342.9L488,342.9z M392,168v16h-48v-16H392z M407.9,115.9c-0.7,12.7-4.8,25-11.9,35.6 l-0.3,0.5H373c-7.3-14.9-11.7-31.3-12.7-47.8C388.3,105.4,402.6,112.5,407.9,115.9L407.9,115.9z M345.9,120h0.2 c1.9,11,5,21.8,9.3,32h-14.5l-11.8-23.6C333,123.1,339.2,120,345.9,120z M296,226.4L277.5,248H264v15.7l-4.8,5.6 c-7,8.1-12.6,17.1-17,26.7H232v16h4.4c-2.8,10-4.4,20.4-4.4,30.9c0,19.1,4.7,37.3,13.6,53.8l-61.6-7.7V161.6l112,21V226.4z M88,65.6 l112,21v61.7l-32-6v244.6l-16-2V190.4l-64,12V65.6z M136,209.6v173.3l-112-14V230.6L136,209.6z M24,385.1l192,24V488H24V385.1z  M232,488v-76.9l32,4V488H232z M487.8,415.7l-3.8,13.2c-6.8,23.7-23.6,42.8-46.3,52.5c-10.2,4.4-21,6.6-32.1,6.6H280v-75.9 c18.7-13,41.2-20.1,64-20.1h24c4.4,0,8,3.6,8,8c0,5.3-3.8,9.9-9.1,10.7l-21.4,3.6C335.4,416,328,424.7,328,435c0,11.6,9.4,21,21,21 h53c21.4,0,41.6-9.4,55.3-25.9l14.4-17.3c2.5-3,6.3-4.8,10.2-4.8c3.3,0,6,2.7,6,6C488,414.6,487.9,415.2,487.8,415.7L487.8,415.7z"></path><path class="st0" d="M200,296h16v16h-16V296z"></path><path class="st0" d="M200,344h16v16h-16V344z"></path><path class="st0" d="M232,248h16v16h-16V248z"></path><path class="st0" d="M200,248h16v16h-16V248z"></path><path class="st0" d="M264,200h16v16h-16V200z"></path><path class="st0" d="M232,200h16v16h-16V200z"></path><path class="st0" d="M200,200h16v16h-16V200z"></path><path class="st0" d="M104,152h16v16h-16V152z"></path><path class="st0" d="M168,104h16v16h-16V104z"></path><path class="st0" d="M136,104h16v16h-16V104z"></path><path class="st0" d="M104,104h16v16h-16V104z"></path><path class="st0" d="M136,152h16v16h-16V152z"></path><g>	<g>		<path class="st0" d="M420.4,273.5c-0.5-0.5-1.2-0.8-2.1-0.8h-15.5c-1-5-3-9.4-5.8-13h21.1c0.8,0,1.5-0.3,2.1-0.8   c0.5-0.5,0.8-1.2,0.8-2.1v-9.2c0-0.8-0.3-1.5-0.8-2.1c-0.5-0.5-1.2-0.8-2.1-0.8h-75.3c-0.8,0-1.5,0.3-2.1,0.8   c-0.5,0.5-0.8,1.2-0.8,2.1v12c0,0.8,0.3,1.5,0.9,2c0.6,0.6,1.3,0.9,2,0.9h13.1c12.7,0,20.8,3.4,24.3,10.2h-37.4   c-0.8,0-1.5,0.3-2.1,0.8c-0.5,0.5-0.8,1.2-0.8,2.1v9.2c0,0.8,0.3,1.5,0.8,2.1c0.5,0.5,1.2,0.8,2.1,0.8h38.6   c-1.3,4.9-4.4,8.7-9.3,11.3s-11.3,3.9-19.2,3.9h-10.1c-0.8,0-1.5,0.3-2,0.9c-0.6,0.6-0.9,1.3-0.9,2v11.5c0,0.8,0.3,1.4,0.8,2   c11.6,12.3,26.6,29.5,45.1,51.7c0.5,0.7,1.3,1.1,2.3,1.1h17.6c1.3,0,2.1-0.5,2.6-1.6c0.6-1.1,0.5-2.1-0.4-3.1   c-17.6-21.6-31.5-37.8-41.5-48.5c10.3-1.2,18.6-4.5,25-10c6.4-5.4,10.3-12.5,11.7-21.2h15.2c0.8,0,1.5-0.3,2.1-0.8   c0.5-0.5,0.8-1.2,0.8-2.1v-9.2C421.2,274.7,420.9,274,420.4,273.5z"></path>	</g></g></svg>