<svg xmlns="http://www.w3.org/2000/svg" xmlns:xlink="http://www.w3.org/1999/xlink" id="Layer_1" x="0px" y="0px" viewBox="0 0 512 512" style="enable-background:new 0 0 512 512;" xml:space="preserve"><style type="text/css">	.st0{fill:#F47123;}	.st1{fill:#06529C;}</style><path class="st0" d="M192,136h-32c-4.4,0-8-3.6-8-8V64c0-4.4,3.6-8,8-8s8,3.6,8,8v56h24c4.4,0,8,3.6,8,8 C200,132.4,196.4,136,192,136z"></path><path class="st0" d="M224,136c-13.3,0-24-10.7-24-24V80c0-13.3,10.7-24,24-24s24,10.7,24,24v32C248,125.3,237.3,136,224,136z  M224,72c-4.4,0-8,3.6-8,8v32c0,4.4,3.6,8,8,8s8-3.6,8-8V80C232,75.6,228.4,72,224,72z"></path><path class="st0" d="M319.5,125.2l-24-64c-1.5-4.1-6.2-6.2-10.3-4.7c-2.2,0.8-3.9,2.5-4.7,4.7l-24,64c-1.5,4.1,0.6,8.7,4.7,10.3 c4.1,1.5,8.7-0.6,10.3-4.7l4-10.8h24.9l4,10.8c1.2,3.1,4.2,5.2,7.5,5.2c1,0,1.9-0.2,2.8-0.5C318.9,133.9,321,129.3,319.5,125.2 C319.5,125.2,319.5,125.2,319.5,125.2z M281.5,104l6.5-17.2l6.5,17.2H281.5z"></path><path class="st0" d="M368,136c-3,0-5.8-1.7-7.2-4.4L344,97.9V128c0,4.4-3.6,8-8,8s-8-3.6-8-8V64c0-4.4,3.5-8,7.9-8.1 c3.1,0,5.9,1.7,7.3,4.5L360,94.1V64c0-4.4,3.6-8,8-8s8,3.6,8,8v64c0,3.7-2.6,6.9-6.2,7.8C369.2,135.9,368.6,136,368,136z"></path><path class="st0" d="M120,416c-13.3,0-24,10.7-24,24s10.7,24,24,24s24-10.7,24-24l0,0C144,426.7,133.3,416,120,416z M120,448 c-4.4,0-8-3.6-8-8s3.6-8,8-8s8,3.6,8,8S124.4,448,120,448z"></path><path class="st0" d="M392,416c-13.3,0-24,10.7-24,24s10.7,24,24,24s24-10.7,24-24l0,0C416,426.7,405.3,416,392,416z M392,448 c-4.4,0-8-3.6-8-8s3.6-8,8-8s8,3.6,8,8S396.4,448,392,448z"></path><path class="st0" d="M256,328c-4.4,0-8,3.6-8,8v80c0,4.4,3.6,8,8,8s8-3.6,8-8v-80C264,331.6,260.4,328,256,328z"></path><path class="st0" d="M392,328c-4.4,0-8,3.6-8,8v32c0,4.4,3.6,8,8,8s8-3.6,8-8v-32C400,331.6,396.4,328,392,328z"></path><path class="st0" d="M80,328c-13.3,0-24,10.7-24,24s10.7,24,24,24s24-10.7,24-24S93.3,328,80,328z M80,360c-4.4,0-8-3.6-8-8 s3.6-8,8-8s8,3.6,8,8S84.4,360,80,360z"></path><path class="st1" d="M479.7,385.3c-3.4-42.9-37.3-77.2-80.2-80.9c-3.7-59.9-51.2-107.8-111.1-112l11.7-16.4H384 c13.3,0,24-10.7,24-24V40c0-13.3-10.7-24-24-24H144c-13.3,0-24,10.7-24,24v112c0,13.3,10.7,24,24,24h67.9l11.4,16H184 c-63.5-0.1-116,49.4-119.6,112.8C45.6,308.5,32,324.9,32,344v41.4c-9.6,3.4-16,12.5-16,22.6v16c0,13.3,10.7,24,24,24h24.6 c4.4,30.6,32.7,51.8,63.3,47.4c24.6-3.5,43.9-22.8,47.4-47.4h161.3c4.4,30.6,32.7,51.8,63.3,47.4c24.6-3.5,43.9-22.8,47.4-47.4H472 c13.3,0,24-10.7,24-24v-16C496,397.7,489.5,388.6,479.7,385.3z M440,338.5c6.8,6.1,12.3,13.4,16.4,21.5H448c-4.4,0-8-3.6-8-8V338.5z  M383.7,304H264v-72h82.2C368,249.9,381.6,275.9,383.7,304z M248,304H128c0-39.7,32.3-72,72-72h48V304z M280,208 c13.7,0,27.2,2.7,39.9,8h-48.3l5.7-8H280z M216,160h-72c-4.4,0-8-3.6-8-8V40c0-4.4,3.6-8,8-8h240c4.4,0,8,3.6,8,8v112 c0,4.4-3.6,8-8,8h-88c-2.6,0-5,1.2-6.5,3.4L256,210.2l-33.5-46.9C221,161.2,218.6,160,216,160z M110.4,238.5 c19.5-19.5,46-30.5,73.6-30.5h50.7l5.7,8H200c-48.6,0.1-87.9,39.4-88,88H80.3C82.2,279.2,92.9,256,110.4,238.5z M120,480 c-22.1,0-40-17.9-40-40s17.9-40,40-40s40,17.9,40,40C160,462.1,142.1,480,120,480z M392,480c-22.1,0-40-17.9-40-40s17.9-40,40-40 s40,17.9,40,40C432,462.1,414.1,480,392,480z M480,424c0,4.4-3.6,8-8,8h-24.6c-4.4-30.6-32.7-51.8-63.3-47.4 c-24.6,3.5-43.9,22.8-47.4,47.4H175.4c-4.4-30.6-32.7-51.8-63.3-47.4c-24.6,3.5-43.9,22.8-47.4,47.4H40c-4.4,0-8-3.6-8-8v-16 c0-4.4,3.6-8,8-8s8-3.6,8-8v-48c0-13.3,10.7-24,24-24h320c11.1,0,22.1,2.6,32,7.6V352c0,13.3,10.7,24,24,24h14.1 c1.2,5.2,1.8,10.6,1.9,16c0,4.4,3.6,8,8,8s8,3.6,8,8V424z"></path><path class="st0" d="M232,336h-16c-4.4,0-8,3.6-8,8s3.6,8,8,8h16c4.4,0,8-3.6,8-8S236.4,336,232,336z"></path><path class="st0" d="M296,336h-16c-4.4,0-8,3.6-8,8s3.6,8,8,8h16c4.4,0,8-3.6,8-8S300.4,336,296,336z"></path></svg>