<svg xmlns="http://www.w3.org/2000/svg" xmlns:xlink="http://www.w3.org/1999/xlink" id="Layer_1" x="0px" y="0px" viewBox="0 0 512 512" style="enable-background:new 0 0 512 512;" xml:space="preserve"><style type="text/css">	.st0{fill:#F47123;}	.st1{fill:#06529C;}</style><g id="_x30_25---Studant-Loans">	<path id="Shape" class="st0" d="M362.3,383.5c2.2,0.7,4.7,0.6,6.7-0.5c2.1-1,3.7-2.9,4.4-5.1c4.1-12.3,6.1-25.2,6.1-38.1  c0-12.9-2-25.8-6-38.1c-1-3-3.5-5.3-6.6-6c-3.1-0.7-6.3,0.4-8.4,2.8c-2.1,2.4-2.8,5.7-1.7,8.7c3.4,10.5,5.2,21.5,5.1,32.6  c0,11-1.7,22-5.2,32.5C355.2,377,357.7,382,362.3,383.5L362.3,383.5z"></path>	<path id="Shape_00000154404769350596077560000005945318503457589648_" class="st0" d="M149.6,296.2c-4.6-1.5-9.6,1-11.1,5.6  c-4,12.3-6,25.1-6,38.1c0,12.9,2,25.8,6.1,38.1c1,3,3.5,5.2,6.6,5.9c3.1,0.6,6.3-0.4,8.4-2.8c2.1-2.4,2.8-5.7,1.8-8.7  c-3.5-10.5-5.2-21.5-5.2-32.5c0-11.1,1.7-22,5.1-32.6C156.7,302.7,154.2,297.7,149.6,296.2z"></path>	<path id="Shape_00000092414091832270827010000003959030062451618993_" class="st1" d="M264.8,251.6c61.4-0.4,123.6-6.3,123.6-53  v-55.1c16.1,7,26.5,22.8,26.5,40.3v25.6c-5.1,2.1-9.3,5.9-11.8,10.8l-21,42.1c-3.6,7.2-3.2,15.7,1,22.5c4.2,6.8,11.7,11,19.7,11  h42.1c8,0,15.4-4.2,19.7-11c4.2-6.8,4.6-15.3,1-22.5l-21-42.1c-2.5-4.9-6.7-8.8-11.8-10.8v-25.6c0-21.2-10.9-40.8-28.9-52.1  l95.3-26.3c5.7-1.6,9.7-6.8,9.7-12.8c0-6-4-11.2-9.7-12.8l0,0L263.1,14.8c-4.6-1.3-9.5-1.3-14.1,0L13.1,79.9  c-5.7,1.6-9.7,6.8-9.7,12.8c0,6,4,11.2,9.7,12.8l110.5,30.5v62.7c-0.4,13,5.9,25.4,16.5,32.9c-5.5,5.7-10.5,11.8-15,18.2  C86.4,306,87.9,380.8,129,435.4s112.5,76.8,177.3,55.1c64.8-21.7,108.5-82.4,108.5-150.7c0-6.3-0.4-12.5-1.1-18.7  c-0.4-3.1-2.4-5.9-5.3-7.1c-2.9-1.2-6.3-0.8-8.8,1.1c-2.5,1.9-3.8,5-3.4,8.2c0.7,5.5,1,11,1,16.6c0,60.8-38.8,114.7-96.5,134  c-57.6,19.3-121.1-0.5-157.6-49s-37.9-115-3.4-165.1c4.9-7,10.4-13.6,16.6-19.5c23.7,9.2,57.4,11.1,90.9,11.3 M309,375.2   M449.6,270.1c0.9,1.7,0.8,3.7-0.2,5.3c-1,1.6-2.8,2.6-4.7,2.6h-42.1c-1.9,0-3.7-1-4.7-2.6c-1-1.6-1.1-3.6-0.2-5.3l21-42  c0.9-1.9,2.8-3,4.9-3c2.1,0,4,1.2,4.9,3L449.6,270.1z M256,233.9c-48.9,0-80.3-3.7-97.7-12.1l-0.4-0.2c-9.8-3.5-16.4-12.6-16.6-23  v-57.8l107.7,29.7c4.6,1.3,9.5,1.3,14.1,0l107.7-29.7v57.8C370.8,223.7,337.5,233.9,256,233.9z M377,120.8l-68.9-23  c0.5-1.7,0.8-3.4,0.8-5.1c0-18.2-27.5-26.5-53-26.5s-53,8.3-53,26.5s27.5,26.5,53,26.5c13.1,0.3,26.1-2.2,38.2-7.4l52.3,17.4  l-88.2,24.3c-1.5,0.4-3.2,0.4-4.7,0L33.2,92.7l220.5-60.8c1.5-0.4,3.2-0.4,4.7,0l220.5,60.8L377,120.8z M256,101.5  c-20.7,0-32.8-5.9-35.1-8.8c2.3-2.9,14.4-8.8,35.1-8.8s32.8,5.9,35.1,8.8C288.8,95.6,276.7,101.5,256,101.5z"></path></g><g>	<g>		<path class="st0" d="M295.8,305c-0.5-0.5-1.2-0.8-2.1-0.8h-15.5c-1-5-3-9.4-5.8-13h21.1c0.8,0,1.5-0.3,2.1-0.8   c0.5-0.5,0.8-1.2,0.8-2.1v-9.2c0-0.8-0.3-1.5-0.8-2.1c-0.5-0.5-1.2-0.8-2.1-0.8h-75.3c-0.8,0-1.5,0.3-2.1,0.8   c-0.5,0.5-0.8,1.2-0.8,2.1v12c0,0.8,0.3,1.5,0.9,2c0.6,0.6,1.3,0.9,2,0.9h13.1c12.7,0,20.8,3.4,24.3,10.2h-37.4   c-0.8,0-1.5,0.3-2.1,0.8c-0.5,0.5-0.8,1.2-0.8,2.1v9.2c0,0.8,0.3,1.5,0.8,2.1c0.5,0.5,1.2,0.8,2.1,0.8h38.6   c-1.3,4.9-4.4,8.7-9.3,11.3s-11.3,3.9-19.2,3.9h-10.1c-0.8,0-1.5,0.3-2,0.9c-0.6,0.6-0.9,1.3-0.9,2v11.5c0,0.8,0.3,1.4,0.8,2   c11.6,12.3,26.6,29.5,45.1,51.7c0.5,0.7,1.3,1.1,2.3,1.1h17.6c1.3,0,2.1-0.5,2.6-1.6c0.6-1.1,0.5-2.1-0.4-3.1   c-17.6-21.6-31.5-37.8-41.5-48.5c10.3-1.2,18.6-4.5,25-10c6.4-5.4,10.3-12.5,11.7-21.2h15.2c0.8,0,1.5-0.3,2.1-0.8   c0.5-0.5,0.8-1.2,0.8-2.1v-9.2C296.6,306.2,296.3,305.5,295.8,305z"></path>	</g></g></svg>