<svg xmlns="http://www.w3.org/2000/svg" xmlns:xlink="http://www.w3.org/1999/xlink" id="Layer_1" x="0px" y="0px" viewBox="0 0 512 512" style="enable-background:new 0 0 512 512;" xml:space="preserve"><style type="text/css">	.st0{fill:#06529C;}	.st1{fill:#F47123;}</style><path class="st0" d="M80,376c0-4.4,3.6-8,8-8h104c4.4,0,8,3.6,8,8s-3.6,8-8,8H88C83.6,384,80,380.4,80,376z M208,328 c0-4.4-3.6-8-8-8h-32c-4.4,0-8,3.6-8,8s3.6,8,8,8h32C204.4,336,208,332.4,208,328z M88,336h48c4.4,0,8-3.6,8-8s-3.6-8-8-8H88 c-4.4,0-8,3.6-8,8S83.6,336,88,336z M496,360c0,75.1-60.9,136-136,136s-136-60.9-136-136s60.9-136,136-136 C435.1,224.1,495.9,284.9,496,360z M480,360c0-66.3-53.7-120-120-120s-120,53.7-120,120s53.7,120,120,120 C426.2,479.9,479.9,426.2,480,360z M263.5,226.7V187L200,138.1l-64,49.2V272h31.5v-64c0-4.4,3.6-8,8-8H224c4.4,0,8,3.6,8,8v72 c0,4.4-3.6,8-8,8h-96c-4.4,0-8-3.6-8-8v-80.4c-3.5,2.5-8.3,1.8-11-1.6l-19.4-25.1c-2.7-3.5-2-8.5,1.4-11.2c0,0,0,0,0,0l94.2-72.5h0 c8.6-6.6,20.6-6.6,29.3,0l94.2,72.5c3.5,2.7,4.2,7.7,1.5,11.2c0,0,0,0,0,0L291,198c-2.7,3.5-7.7,4.2-11.2,1.5l-0.2-0.2v27.4 c0,4.4-3.6,8-8,8S263.5,231.1,263.5,226.7L263.5,226.7z M183.5,272H216v-56h-32.5V272z M204.9,121.7l78.3,60.2l9.6-12.4l-87.9-67.6 c-2.9-2.2-6.9-2.2-9.8,0l-87.9,67.6l9.6,12.4l78.3-60.2C198,119.4,202,119.4,204.9,121.7L204.9,121.7z M224,440c0,4.4-3.6,8-8,8H72 c-22.1,0-40-17.9-40-40V56c0-22.1,17.9-40,40-40h210.7c10.6,0,20.8,4.2,28.3,11.7L356.3,73c7.5,7.5,11.7,17.7,11.7,28.3V200 c0,4.4-3.6,8-8,8s-8-3.6-8-8v-98.7c0-1.8-0.2-3.5-0.6-5.3H312c-13.2,0-24-10.8-24-24V32.6c-1.7-0.4-3.5-0.6-5.3-0.6H72 c-13.2,0-24,10.8-24,24v352c0,13.2,10.8,24,24,24h144C220.4,432,224,435.6,224,440z M304,43.3V72c0,4.4,3.6,8,8,8h28.7L304,43.3z  M464,360c0,57.4-46.6,104-104,104s-104-46.6-104-104s46.6-104,104-104C417.4,256.1,463.9,302.6,464,360z M448,360 c0-48.6-39.4-88-88-88s-88,39.4-88,88s39.4,88,88,88C408.6,447.9,447.9,408.6,448,360z"></path><g>	<g>		<path class="st1" d="M394.3,337.9c-0.4-0.4-1-0.7-1.8-0.7h-13.3c-0.9-4.3-2.6-8.1-5-11.2h18.1c0.7,0,1.3-0.3,1.8-0.7   c0.4-0.4,0.7-1,0.7-1.8v-7.9c0-0.7-0.3-1.3-0.7-1.8c-0.4-0.4-1-0.7-1.8-0.7h-64.7c-0.7,0-1.3,0.3-1.8,0.7c-0.4,0.4-0.7,1-0.7,1.8   V326c0,0.7,0.3,1.3,0.8,1.7c0.5,0.5,1.1,0.8,1.7,0.8h11.3c10.9,0,17.9,2.9,20.9,8.8h-32.2c-0.7,0-1.3,0.3-1.8,0.7   c-0.4,0.4-0.7,1-0.7,1.8v7.9c0,0.7,0.3,1.3,0.7,1.8c0.4,0.4,1,0.7,1.8,0.7h33.2c-1.1,4.2-3.8,7.5-8,9.7c-4.2,2.2-9.7,3.4-16.5,3.4   h-8.7c-0.7,0-1.3,0.3-1.7,0.8c-0.5,0.5-0.8,1.1-0.8,1.7v9.9c0,0.7,0.3,1.2,0.7,1.7c10,10.6,22.9,25.4,38.8,44.5   c0.4,0.6,1.1,0.9,2,0.9h15.1c1.1,0,1.8-0.4,2.2-1.4c0.5-0.9,0.4-1.8-0.3-2.7c-15.1-18.6-27.1-32.5-35.7-41.7   c8.9-1,16-3.9,21.5-8.6c5.5-4.6,8.9-10.7,10.1-18.2h13.1c0.7,0,1.3-0.3,1.8-0.7c0.4-0.4,0.7-1,0.7-1.8v-7.9   C395,338.9,394.7,338.3,394.3,337.9z"></path>	</g></g></svg>