<svg xmlns="http://www.w3.org/2000/svg" xmlns:xlink="http://www.w3.org/1999/xlink" id="Layer_1" x="0px" y="0px" viewBox="0 0 512 512" style="enable-background:new 0 0 512 512;" xml:space="preserve"><style type="text/css">	.st0{fill:#06529C;}	.st1{fill:#F47123;}</style><g id="XMLID_1125_">	<g id="XMLID_281_">		<path id="XMLID_1217_" class="st0" d="M510.5,334.1c-3.9-13.6-15-23.9-28.8-26.8c-8.9-1.9-18.1-0.5-26,3.7   c4.6-28.3,2.2-57.7-7.2-85c-1.8-5.2-7.5-8-12.7-6.2c-5.2,1.8-8,7.5-6.2,12.7c11.1,32.3,11.2,67.7,0.3,100l-79.7,70.8   c-4.9,4.4-10.3,8.1-16,11.1c1.6-6.6,1.5-13.5-0.4-20.1c-3.1-10.4-10.5-19.1-20.2-23.8l-70.6-33.8c-30.9-14.8-67-16.5-99.1-4.7   l-7.2,2.6c-19.9-56.3-6.1-118.7,36.6-161.3l70.6-70.6H322l59.8,59.8c3.9,3.9,10.2,3.9,14.1,0c3.9-3.9,3.9-10.2,0-14.1l-57.2-57.2   l20.7-59.5c2.8-8-0.3-16.7-7.4-21.1c-7.1-4.5-16.3-3.4-22.3,2.5l-0.1,0.1c-4.1,4.1-10.9,4.1-15,0c-17.6-17.5-46.1-17.5-63.7,0   c-2,2-4.7,3.1-7.5,3.1c-2.8,0-5.5-1.1-7.5-3.1c-6-6-15.1-7-22.3-2.5c-7.2,4.5-10.2,13.2-7.4,21.2L227,91.1l-67.9,67.9   c-25.1,25.1-41.9,56.8-48.3,91.7c-5.7,30.5-3.2,61.7,7.1,90.7l-15.8,5.8c-5.2-6.8-13.5-11.2-22.7-11.2H28.7   C12.9,336,0,348.9,0,364.7v118.7C0,499.1,12.9,512,28.7,512h263.6c41.4,0,80.5-15.9,110.2-44.7l97.9-95.2   C510.5,362.2,514.4,347.7,510.5,334.1z M243.5,36.3c8.2,0,15.9-3.2,21.6-9c9.8-9.8,25.6-9.8,35.4,0c5.8,5.8,13.5,9,21.6,9   c5.8,0,11.4-1.6,16.2-4.6l-17.7,50.9h-75.4l-17.8-50.9C232.2,34.7,237.7,36.3,243.5,36.3L243.5,36.3z M20,483.3V364.7   c0-4.8,3.9-8.7,8.7-8.7h50.7c4.8,0,8.7,3.9,8.7,8.7v118.7c0,4.8-3.9,8.7-8.7,8.7H28.7C23.9,492,20,488.1,20,483.3L20,483.3z    M486.5,357.7l-97.9,95.2c-25.9,25.2-60.1,39.1-96.3,39.1H106.7c0.9-2.7,1.3-5.6,1.3-8.7v-117l42.7-15.7c27.1-9.9,57.6-8.5,83.6,4   l70.6,33.8c4.8,2.3,8.2,6.3,9.7,11.4c1.5,5.1,0.8,10.3-2,14.8c-4.4,7.2-13.2,10.5-21.3,7.9l-93.8-29.8c-5.3-1.7-10.9,1.2-12.6,6.5   c-1.7,5.3,1.2,10.9,6.5,12.6l93.8,29.8c3.9,1.2,7.8,1.8,11.7,1.8c0.5,0,0.9,0,1.4,0c24.1-0.3,47.1-9.3,65.1-25.3l98.1-87.1   c4.3-3.8,10.3-5.4,15.9-4.2c6.7,1.4,11.8,6.2,13.7,12.8C493.2,346.2,491.4,353,486.5,357.7L486.5,357.7z"></path>		<path id="XMLID_1298_" class="st1" d="M418.8,199c2.6,0,5.2-1.1,7.1-2.9c1.9-1.9,2.9-4.4,2.9-7.1c0-2.6-1.1-5.2-2.9-7.1   c-1.9-1.9-4.4-2.9-7.1-2.9c-2.6,0-5.2,1.1-7.1,2.9c-1.9,1.9-2.9,4.4-2.9,7.1c0,2.6,1.1,5.2,2.9,7.1   C413.5,197.9,416.1,199,418.8,199z"></path>	</g></g><g>	<g>		<path class="st1" d="M321.2,212.9c-0.5-0.5-1.2-0.8-2.1-0.8h-15.5c-1-5-3-9.4-5.8-13h21.1c0.8,0,1.5-0.3,2.1-0.8   c0.5-0.5,0.8-1.2,0.8-2.1v-9.2c0-0.8-0.3-1.5-0.8-2.1c-0.5-0.5-1.2-0.8-2.1-0.8h-75.3c-0.8,0-1.5,0.3-2.1,0.8   c-0.5,0.5-0.8,1.2-0.8,2.1v12c0,0.8,0.3,1.5,0.9,2c0.6,0.6,1.3,0.9,2,0.9h13.1c12.7,0,20.8,3.4,24.3,10.2h-37.4   c-0.8,0-1.5,0.3-2.1,0.8c-0.5,0.5-0.8,1.2-0.8,2.1v9.2c0,0.8,0.3,1.5,0.8,2.1c0.5,0.5,1.2,0.8,2.1,0.8h38.6   c-1.3,4.9-4.4,8.7-9.3,11.3c-4.9,2.6-11.3,3.9-19.2,3.9h-10.1c-0.8,0-1.5,0.3-2,0.9c-0.6,0.6-0.9,1.3-0.9,2v11.5   c0,0.8,0.3,1.4,0.8,2c11.6,12.3,26.6,29.5,45.1,51.7c0.5,0.7,1.3,1.1,2.3,1.1h17.6c1.3,0,2.1-0.5,2.6-1.6c0.6-1.1,0.5-2.1-0.4-3.1   c-17.6-21.6-31.5-37.8-41.5-48.5c10.3-1.2,18.6-4.5,25-10c6.4-5.4,10.3-12.5,11.7-21.2h15.2c0.8,0,1.5-0.3,2.1-0.8   c0.5-0.5,0.8-1.2,0.8-2.1v-9.2C322,214.1,321.7,213.4,321.2,212.9z"></path>	</g></g></svg>